<svg id="그룹_3776" data-name="그룹 3776" xmlns="http://www.w3.org/2000/svg" xmlns:xlink="http://www.w3.org/1999/xlink" width="289.407" height="47.116" viewBox="0 0 289.407 47.116">
  <defs>
    <clipPath id="clip-path">
      <rect id="사각형_936" data-name="사각형 936" width="289.407" height="47.116" fill="#fff"/>
    </clipPath>
  </defs>
  <path id="패스_1913" data-name="패스 1913" d="M21.442,2.786,3.86,44.466h6.827l2.84-6.832,2.357-5.653,6.644-17.02,6.586,17.02,2.357,5.653,2.84,6.832H41.2L23.617,2.786Z" transform="translate(2.752 1.986)" fill="#fff"/>
  <path id="패스_1914" data-name="패스 1914" d="M18.053,3.226h1.613l17.21,40.8H30.923l-2.728-6.567-2.353-5.64L19.257,14.8l-.4-1.025-.4,1.023L11.82,31.806,9.463,37.461,6.735,44.026H.843Zm-.281-.44L.19,44.466H7.017l2.84-6.832,2.357-5.653,6.644-17.02,6.586,17.02L27.8,37.633l2.84,6.832h6.887L19.947,2.786Z" transform="translate(0.135 1.985)" fill="#fff"/>
  <g id="그룹_3105" data-name="그룹 3105" transform="translate(0 0)">
    <g id="그룹_3104" data-name="그룹 3104" clip-path="url(#clip-path)">
      <path id="패스_1915" data-name="패스 1915" d="M44.1,8.96a9.136,9.136,0,0,1,1.394.093q.587.092,1.083.216v5.759H44.594a11.158,11.158,0,0,0-3.435.527,7.982,7.982,0,0,0-2.849,1.578,7.571,7.571,0,0,0-1.92,2.631,8.907,8.907,0,0,0-.711,3.684V39.67H29.116V9.269h6.129l0,3.963a10.521,10.521,0,0,1,3.935-3.189A11.509,11.509,0,0,1,44.1,8.96" transform="translate(21.99 6.767)" fill="#fff"/>
      <path id="패스_1916" data-name="패스 1916" d="M42.343,0h6.565V46.435H42.343ZM70.02,46.435h-7.8L49.03,29.348,60.917,16.036h8.048L56.71,29.409Z" transform="translate(31.98 -0.001)" fill="#fff"/>
      <path id="패스_1917" data-name="패스 1917" d="M111.344,0V46.435h-6.068V42.049a11.4,11.4,0,0,1-4.458,3.723,14.073,14.073,0,0,1-6.191,1.345,14.676,14.676,0,0,1-6.006-1.208,13.84,13.84,0,0,1-4.674-3.344,15.874,15.874,0,0,1-3.065-5.015,17.278,17.278,0,0,1-1.115-6.284,17.524,17.524,0,0,1,1.115-6.315,15.47,15.47,0,0,1,3.1-5.046,14.185,14.185,0,0,1,4.706-3.344,14.512,14.512,0,0,1,5.943-1.206,14.213,14.213,0,0,1,5.789,1.157,11.513,11.513,0,0,1,4.365,3.284V0ZM95.71,41.11a10.334,10.334,0,0,0,3.324-.553,8.135,8.135,0,0,0,2.949-1.753,8.87,8.87,0,0,0,2.113-3.077,11.253,11.253,0,0,0,.807-4.46,11.035,11.035,0,0,0-.807-4.43,9.266,9.266,0,0,0-2.113-3.077,8.292,8.292,0,0,0-2.949-1.815,9.874,9.874,0,0,0-3.324-.584,9.543,9.543,0,0,0-3.695.707,8.956,8.956,0,0,0-2.982,2,9.1,9.1,0,0,0-1.989,3.107,11.719,11.719,0,0,0,0,8.058A9.367,9.367,0,0,0,89,38.342a8.9,8.9,0,0,0,2.98,2.031,9.458,9.458,0,0,0,3.728.737" transform="translate(60.244 -0.001)" fill="#fff"/>
      <path id="패스_1918" data-name="패스 1918" d="M106.906.212a4.384,4.384,0,0,1,3.126,1.269,4.079,4.079,0,0,1,1.332,3.065,3.98,3.98,0,0,1-1.332,3.033,4.607,4.607,0,0,1-6.284,0,4.024,4.024,0,0,1-1.3-3.033,4.125,4.125,0,0,1,1.3-3.065A4.352,4.352,0,0,1,106.906.212m3.282,46.063h-6.563v-30.4h6.563Z" transform="translate(77.374 0.16)" fill="#fff"/>
      <path id="패스_1919" data-name="패스 1919" d="M123.129,8.748A14.177,14.177,0,0,1,129.1,9.954a12.9,12.9,0,0,1,4.551,3.5l-3.53,4.025a9.517,9.517,0,0,0-7.118-3.1,5.668,5.668,0,0,0-2.973.711,2.391,2.391,0,0,0-1.176,2.2,2.375,2.375,0,0,0,.96,1.98,14.01,14.01,0,0,0,3.063,1.611l2.912,1.174a18.666,18.666,0,0,1,6.222,3.747,7.323,7.323,0,0,1,2.073,5.417,8.356,8.356,0,0,1-3.342,6.935,10.828,10.828,0,0,1-3.591,1.764,15.632,15.632,0,0,1-4.335.588,14.965,14.965,0,0,1-12.257-5.882l3.714-4.086a17.018,17.018,0,0,0,3.869,3.126,9.115,9.115,0,0,0,4.674,1.208,6.769,6.769,0,0,0,3.437-.835,2.767,2.767,0,0,0,1.455-2.57,2.448,2.448,0,0,0-1.208-2.229,24.686,24.686,0,0,0-3.063-1.548l-3.1-1.3a26.01,26.01,0,0,1-3.314-1.58,11.212,11.212,0,0,1-2.477-1.887,7.778,7.778,0,0,1-1.578-2.354,7.672,7.672,0,0,1-.558-3.033,8,8,0,0,1,3.1-6.5,10.177,10.177,0,0,1,3.407-1.7,14.73,14.73,0,0,1,4.209-.588" transform="translate(83.501 6.606)" fill="#fff"/>
      <path id="패스_1920" data-name="패스 1920" d="M143.173,8.749a16.035,16.035,0,0,1,6.286,1.237,16.436,16.436,0,0,1,5.139,3.375,15.856,15.856,0,0,1,3.467,5.013,15.285,15.285,0,0,1,1.269,6.222,15.5,15.5,0,0,1-1.269,6.254,16.093,16.093,0,0,1-3.467,5.076,15.762,15.762,0,0,1-5.139,3.375,16.4,16.4,0,0,1-6.286,1.208,15.811,15.811,0,0,1-6.252-1.239,16.542,16.542,0,0,1-5.108-3.374,15.275,15.275,0,0,1-3.435-5.046,15.782,15.782,0,0,1-1.239-6.254,15.614,15.614,0,0,1,4.643-11.235,16.183,16.183,0,0,1,11.392-4.613m.032,6a9.427,9.427,0,0,0-3.819.772,8.983,8.983,0,0,0-3.014,2.1,9.781,9.781,0,0,0-1.955,3.149,10.635,10.635,0,0,0-.714,3.918,10.4,10.4,0,0,0,.714,3.888,9.844,9.844,0,0,0,1.955,3.117,8.726,8.726,0,0,0,2.984,2.069,10.082,10.082,0,0,0,7.577,0,9.066,9.066,0,0,0,3.012-2.069,9.6,9.6,0,0,0,1.989-3.117,10.433,10.433,0,0,0,.714-3.888,10.671,10.671,0,0,0-.714-3.918,9.877,9.877,0,0,0-1.989-3.179,8.82,8.82,0,0,0-3.012-2.1,9.424,9.424,0,0,0-3.728-.741" transform="translate(96.022 6.607)" fill="#fff"/>
      <path id="패스_1921" data-name="패스 1921" d="M164.941,8.748a12.3,12.3,0,0,1,4.8.9,10.192,10.192,0,0,1,3.591,2.477,10.732,10.732,0,0,1,2.231,3.809,14.813,14.813,0,0,1,.774,4.89V39.828h-6.563V21.688a7.265,7.265,0,0,0-1.789-5.108,6.2,6.2,0,0,0-4.806-1.95,6.7,6.7,0,0,0-4.962,1.95,6.929,6.929,0,0,0-1.941,5.108V39.828h-6.563V9.429h6.129l0,3.033a11.465,11.465,0,0,1,3.9-2.724,13,13,0,0,1,5.2-.99" transform="translate(113.07 6.606)" fill="#fff"/>
      <rect id="사각형_933" data-name="사각형 933" width="26.871" height="5.882" transform="translate(107.755 5.573)" fill="#fff"/>
      <rect id="사각형_934" data-name="사각형 934" width="26.871" height="5.882" transform="translate(107.755 22.09)" fill="#fff"/>
      <rect id="사각형_935" data-name="사각형 935" width="26.871" height="5.882" transform="translate(107.755 41.11)" fill="#fff"/>
    </g>
  </g>
</svg>
